<svg xmlns="http://www.w3.org/2000/svg" width="29.316cm" height="29.139cm">
    <defs>
        <linearGradient id="ksfgb90moa" x1="0%" x2="64.279%" y1="76.604%" y2="0%">
            <stop offset="0%" stop-color="#E88494" stop-opacity=".9"/>
            <stop offset="36%" stop-color="#D05F72" stop-opacity=".9"/>
            <stop offset="100%" stop-color="#B73A50" stop-opacity=".9"/>
        </linearGradient>
    </defs>
    <path fill="#FFF" fill-rule="evenodd" d="M820.977 440.568L653.173 601.179c-11.97 11.456-30.96 11.04-42.416-.929L452.096 434.485c-11.456-11.97-11.04-30.96.929-42.416l167.804-160.612c11.97-11.456 30.96-11.04 42.416.929l158.661 165.765c11.456 11.97 11.04 30.96-.929 42.417zm-380.56-61.672c-11.969 11.456-30.96 11.04-42.416-.929l-158.66-165.765c-11.457-11.97-11.041-30.96.929-42.417L408.074 9.174c11.969-11.456 30.959-11.04 42.416.929l158.66 165.765c11.456 11.969 11.04 30.96-.929 42.416L440.417 378.896zm-62.248 51.974L210.365 591.481c-11.969 11.457-30.959 11.041-42.416-.929L9.289 424.787c-11.456-11.969-11.04-30.959.929-42.416L178.022 221.76c11.969-11.457 30.96-11.041 42.416.929l158.66 165.765c11.457 11.969 11.041 30.959-.929 42.416zm11.194 16.684c11.969-11.456 30.959-11.04 42.416.929l158.66 165.765c11.456 11.969 11.04 30.96-.929 42.416L421.706 817.276c-11.969 11.456-30.96 11.04-42.416-.929L220.63 650.582c-11.457-11.97-11.041-30.96.929-42.417l167.804-160.611z" opacity=".02"/>
    <path fill="url(#ksfgb90moa)" d="M820.977 440.568L653.173 601.179c-11.97 11.456-30.96 11.04-42.416-.929L452.096 434.485c-11.456-11.97-11.04-30.96.929-42.416l167.804-160.612c11.97-11.456 30.96-11.04 42.416.929l158.661 165.765c11.456 11.97 11.04 30.96-.929 42.417zm-380.56-61.672c-11.969 11.456-30.96 11.04-42.416-.929l-158.66-165.765c-11.457-11.97-11.041-30.96.929-42.417L408.074 9.174c11.969-11.456 30.959-11.04 42.416.929l158.66 165.765c11.456 11.969 11.04 30.96-.929 42.416L440.417 378.896zm-62.248 51.974L210.365 591.481c-11.969 11.457-30.959 11.041-42.416-.929L9.289 424.787c-11.456-11.969-11.04-30.959.929-42.416L178.022 221.76c11.969-11.457 30.96-11.041 42.416.929l158.66 165.765c11.457 11.969 11.041 30.959-.929 42.416zm11.194 16.684c11.969-11.456 30.959-11.04 42.416.929l158.66 165.765c11.456 11.969 11.04 30.96-.929 42.416L421.706 817.276c-11.969 11.456-30.96 11.04-42.416-.929L220.63 650.582c-11.457-11.97-11.041-30.96.929-42.417l167.804-160.611z"/>
</svg>
